<?xml version="1.0" encoding="UTF-8" standalone="no"?>
<!-- Created with Inkscape (http://www.inkscape.org/) -->

<svg
   xmlns:dc="http://purl.org/dc/elements/1.1/"
   xmlns:cc="http://creativecommons.org/ns#"
   xmlns:rdf="http://www.w3.org/1999/02/22-rdf-syntax-ns#"
   xmlns:svg="http://www.w3.org/2000/svg"
   xmlns="http://www.w3.org/2000/svg"
   xmlns:sodipodi="http://sodipodi.sourceforge.net/DTD/sodipodi-0.dtd"
   xmlns:inkscape="http://www.inkscape.org/namespaces/inkscape"
   width="386.09"
   height="105"
   id="svg11961"
   version="1.1"
   inkscape:version="0.48.4 r9939"
   sodipodi:docname="drawing in thik.svg">
  <defs
     id="defs11963">
    <clipPath
       clipPathUnits="userSpaceOnUse"
       id="clipPath8826">
      <path
         inkscape:connector-curvature="0"
         d="m 0,6.169 1180.258,0 0,835.721 L 0,841.89 0,6.169 z"
         id="path8828" />
    </clipPath>
  </defs>
  <sodipodi:namedview
     id="base"
     pagecolor="#ffffff"
     bordercolor="#666666"
     borderopacity="1.0"
     inkscape:pageopacity="0.0"
     inkscape:pageshadow="2"
     inkscape:zoom="0.70793118"
     inkscape:cx="347.32732"
     inkscape:cy="526.18109"
     inkscape:document-units="px"
     inkscape:current-layer="layer1"
     showgrid="false"
     inkscape:window-width="1280"
     inkscape:window-height="962"
     inkscape:window-x="-8"
     inkscape:window-y="-8"
     inkscape:window-maximized="1"
     showguides="true"
     inkscape:guide-bbox="true"
     inkscape:showpageshadow="true"
     showborder="true"
     borderlayer="false" />
  <metadata
     id="metadata11966">
    <rdf:RDF>
      <cc:Work
         rdf:about="">
        <dc:format>image/svg+xml</dc:format>
        <dc:type
           rdf:resource="http://purl.org/dc/dcmitype/StillImage" />
        <dc:title></dc:title>
      </cc:Work>
    </rdf:RDF>
  </metadata>
  <g
     inkscape:label="Layer 1"
     inkscape:groupmode="layer"
     id="layer1"
     transform="translate(0,-947.36209)">
    <g
       transform="matrix(5.0077026,0,0,-5.6121488,-2763.4621,3920.3836)"
       id="g8822">
      <g
         id="g8824"
         clip-path="url(#clipPath8826)">
        <g
           id="g8830"
           transform="translate(574.5171,526.7393)">
          <path
             inkscape:connector-curvature="0"
             d="m 0,0 -5.58,0 c -0.274,0 -0.533,-0.136 -0.682,-0.344 l -0.943,-1.38 c 0,0 5.622,10e-4 5.622,0 0.355,-0.022 0.636,-0.317 0.636,-0.677 0,-0.005 -0.001,-2.637 -0.001,-2.637 l -4.217,0 0,0.755 0,0.003 c 0,0.15 0.122,0.271 0.271,0.271 l 2.946,0 0,0.975 c 0,0.239 -0.148,0.373 -0.35,0.373 l -4.086,0 c -0.5,0 -0.905,-0.405 -0.905,-0.904 l 0,-2.406 c 0,-0.011 0.004,-0.024 0.01,-0.039 0.056,-0.361 0.368,-0.626 0.744,-0.626 l 7.967,0 0,5.202 C 1.432,-0.642 0.791,0 0,0"
             style="fill:#e51636;fill-opacity:1;fill-rule:nonzero;stroke:none"
             id="path8832" />
        </g>
        <g
           id="g8834"
           transform="translate(625.3477,526.7393)">
          <path
             inkscape:connector-curvature="0"
             d="m 0,0 -5.578,0 c -0.276,0 -0.534,-0.136 -0.683,-0.344 l -0.944,-1.38 c 0,0 5.623,10e-4 5.623,0 0.354,-0.022 0.637,-0.317 0.637,-0.677 0,-0.005 -0.002,-2.637 -0.002,-2.637 l -4.218,0 0,0.755 0,0.003 c 0,0.15 0.122,0.271 0.272,0.271 l 2.947,0 0,0.975 c 0,0.239 -0.149,0.373 -0.352,0.373 l -4.085,0 c -0.5,0 -0.904,-0.405 -0.904,-0.904 l 0,-2.406 c 0,-0.011 0.004,-0.024 0.01,-0.039 0.055,-0.361 0.367,-0.626 0.744,-0.626 l 7.967,0 0,5.202 C 1.434,-0.642 0.792,0 0,0"
             style="fill:#e51636;fill-opacity:1;fill-rule:nonzero;stroke:none"
             id="path8836" />
        </g>
        <g
           id="g8838"
           transform="translate(607.7842,529.1519)">
          <path
             inkscape:connector-curvature="0"
             d="m 0,0 0,-2.414 0,-4.981 -3.5,0 c -0.242,0 -0.411,0.216 -0.411,0.394 l 0,2.185 0,0.002 c 0,0.375 0.304,0.677 0.679,0.677 l 1.77,0 c 0.265,0 0.536,0.151 0.647,0.336 L 0,-2.414 c 0,0 -4.905,-10e-4 -4.908,-10e-4 -0.79,0 -1.433,-0.641 -1.433,-1.432 0,-0.005 0.001,-0.008 0.001,-0.013 0,-0.004 -0.001,-3.712 -0.001,-4.003 0,-0.762 0.616,-1.186 1.176,-1.186 l 7.595,0 L 2.43,0 0,0 z"
             style="fill:#e51636;fill-opacity:1;fill-rule:nonzero;stroke:none"
             id="path8840" />
        </g>
        <g
           id="g8842"
           transform="translate(612.8008,526.7383)">
          <path
             inkscape:connector-curvature="0"
             d="m 0,0 c -0.604,0 -0.994,-0.467 -0.994,-0.968 l 0,-5.668 2.43,0 0,4.225 c -10e-4,0.38 0.269,0.695 0.654,0.695 l 1.798,0 c 0.261,0.017 0.488,0.17 0.626,0.374 C 4.521,-1.332 5.457,0 5.457,0 L 0,0 z"
             style="fill:#e51636;fill-opacity:1;fill-rule:nonzero;stroke:none"
             id="path8844" />
        </g>
        <g
           id="g8846"
           transform="translate(587.5786,524.5801)">
          <path
             inkscape:connector-curvature="0"
             d="m 0,0 0,-4.478 2.413,0 0,4.004 0,2.556 c 0,0 -1.12,-0.697 -1.912,-1.191 C 0.199,0.697 0,0.371 0,0 m 0,4.578 2.413,0 0,-1.672 L 0,1.304 0,4.578 z"
             style="fill:#e51636;fill-opacity:1;fill-rule:nonzero;stroke:none"
             id="path8848" />
        </g>
        <g
           id="g8850"
           transform="translate(564.0317,529.1523)">
          <path
             inkscape:connector-curvature="0"
             d="m 0,0 -11.609,0 0,-9.049 2.411,0 0,6.937 2.577,0 c 0.246,-0.004 0.441,-0.204 0.441,-0.451 l 10e-4,0 0,-6.486 2.413,0 0,6.486 c 0,0.25 0.203,0.452 0.453,0.452 0.001,0 0.002,-10e-4 0.004,-10e-4 l 1.899,0 c 0.366,0 0.663,-0.296 0.663,-0.662 l 0,-6.275 2.412,0 0,7.385 C 1.665,-0.746 0.919,0 0,0"
             style="fill:#e51636;fill-opacity:1;fill-rule:nonzero;stroke:none"
             id="path8852" />
        </g>
        <g
           id="g8854"
           transform="translate(598.4404,526.7378)">
          <path
             inkscape:connector-curvature="0"
             d="m 0,0 c -0.024,0 -6.861,-0.004 -6.861,-0.004 l 0,-6.631 2.428,0 0,4.914 2.764,0 c 0.375,0 0.679,-0.303 0.679,-0.678 l 0.001,0 0,-4.236 2.422,0 0,5.202 C 1.433,-0.642 0.791,0 0,0"
             style="fill:#e51636;fill-opacity:1;fill-rule:nonzero;stroke:none"
             id="path8856" />
        </g>
        <g
           id="g8858"
           transform="translate(585.9854,525.3066)">
          <path
             inkscape:connector-curvature="0"
             d="m 0,0 c 0,0.791 -0.641,1.433 -1.433,1.433 -0.006,0 -0.021,-0.001 -0.022,0 l -3.152,0 C -4.891,1.433 -5.028,1.29 -5.175,1.071 -5.183,1.06 -6.123,-0.291 -6.123,-0.291 l 3.061,0 c 0.362,-0.016 0.65,-0.313 0.65,-0.678 0,-0.003 -10e-4,-4.234 -10e-4,-4.234 L 0,-5.203 0,-0.016 0,0 m -8.536,3.845 2.414,0 0,-9.048 -2.414,0 0,9.048 z"
             style="fill:#e51636;fill-opacity:1;fill-rule:nonzero;stroke:none"
             id="path8860" />
        </g>
        <g
           id="g8862"
           transform="translate(613.9414,516.3403)">
          <path
             inkscape:connector-curvature="0"
             d="M 0,0 C 0,0.229 -0.044,0.419 -0.128,0.572 -0.213,0.724 -0.324,0.847 -0.465,0.94 -0.604,1.033 -0.763,1.099 -0.94,1.137 -1.118,1.175 -1.301,1.194 -1.487,1.194 -1.674,1.194 -1.862,1.192 -2.053,1.188 -2.243,1.184 -2.432,1.182 -2.617,1.182 L -2.948,-1.5 c 0.194,-0.017 0.384,-0.031 0.565,-0.044 0.183,-0.013 0.37,-0.019 0.566,-0.019 0.585,0 1.033,0.131 1.346,0.394 C -0.157,-0.907 0,-0.517 0,0 m 0.838,-4.388 c 0,-0.138 -0.072,-0.246 -0.216,-0.323 -0.144,-0.079 -0.39,-0.118 -0.737,-0.118 -0.084,0 -0.158,0.024 -0.223,0.071 -0.062,0.046 -0.111,0.103 -0.145,0.171 l -1.233,2.516 c -0.043,-0.008 -0.097,-0.013 -0.166,-0.013 l -0.139,0 c -0.186,0 -0.349,0.007 -0.489,0.019 -0.139,0.013 -0.303,0.032 -0.49,0.057 l -0.354,-2.731 c -0.043,-0.018 -0.096,-0.031 -0.16,-0.038 -0.063,-0.009 -0.141,-0.014 -0.236,-0.014 -0.144,0 -0.242,0.028 -0.298,0.083 -0.055,0.055 -0.083,0.142 -0.083,0.261 0,0.042 0.01,0.139 0.027,0.292 0.016,0.153 0.038,0.343 0.063,0.572 0.025,0.229 0.055,0.487 0.089,0.775 0.034,0.288 0.071,0.593 0.114,0.915 0.067,0.516 0.138,1.029 0.209,1.537 0.072,0.508 0.143,1.021 0.21,1.538 l -0.825,0.025 c -0.034,0.043 -0.051,0.102 -0.051,0.178 0,0.262 0.207,0.394 0.622,0.394 l 2.352,0 c 0.254,0 0.508,-0.026 0.76,-0.077 C -0.306,1.652 -0.078,1.563 0.12,1.437 0.318,1.31 0.479,1.141 0.604,0.929 0.726,0.718 0.787,0.456 0.787,0.143 0.787,-0.44 0.633,-0.895 0.323,-1.22 0.015,-1.545 -0.411,-1.789 -0.953,-1.949 l 1.155,-2.257 0.548,0.051 c 0.059,-0.06 0.088,-0.137 0.088,-0.233"
             style="fill:#656263;fill-opacity:1;fill-rule:nonzero;stroke:none"
             id="path8864" />
        </g>
        <g
           id="g8866"
           transform="translate(617.5439,517.8716)">
          <path
             inkscape:connector-curvature="0"
             d="m 0,0 c 0,-0.161 -0.052,-0.288 -0.153,-0.381 -0.102,-0.094 -0.25,-0.14 -0.446,-0.14 -0.143,0 -0.259,0.032 -0.348,0.095 -0.089,0.064 -0.134,0.172 -0.134,0.324 0,0.153 0.056,0.278 0.166,0.375 0.109,0.098 0.262,0.146 0.457,0.146 0.169,0 0.287,-0.038 0.355,-0.114 C -0.034,0.229 0,0.127 0,0 m 0.222,-5.919 c 0,-0.121 -0.081,-0.223 -0.243,-0.305 -0.161,-0.082 -0.43,-0.123 -0.812,-0.123 -0.237,0 -0.415,0.046 -0.533,0.14 -0.119,0.093 -0.178,0.262 -0.178,0.508 0,0.178 0.024,0.441 0.075,0.788 l 0.433,3.011 -0.801,-0.025 c -0.059,0.05 -0.089,0.118 -0.089,0.203 0,0.144 0.082,0.25 0.247,0.318 0.166,0.068 0.451,0.101 0.859,0.101 0.246,0 0.406,-0.031 0.482,-0.094 0.076,-0.064 0.103,-0.188 0.076,-0.374 l -0.266,-1.964 c -0.06,-0.423 -0.111,-0.79 -0.153,-1.103 -0.043,-0.312 -0.063,-0.519 -0.063,-0.62 0,-0.119 0.02,-0.192 0.063,-0.222 0.042,-0.03 0.145,-0.045 0.306,-0.045 0.059,0 0.142,0.011 0.247,0.033 0.107,0.021 0.189,0.04 0.248,0.057 0.068,-0.051 0.102,-0.146 0.102,-0.284"
             style="fill:#656263;fill-opacity:1;fill-rule:nonzero;stroke:none"
             id="path8868" />
        </g>
        <g
           id="g8870"
           transform="translate(622.1992,516.0991)">
          <path
             inkscape:connector-curvature="0"
             d="m 0,0 c 0,-0.119 -0.022,-0.206 -0.069,-0.26 -0.047,-0.056 -0.118,-0.1 -0.209,-0.135 -0.17,0.137 -0.357,0.228 -0.56,0.274 -0.204,0.046 -0.433,0.07 -0.685,0.07 -0.366,0 -0.643,-0.08 -0.833,-0.241 -0.191,-0.162 -0.287,-0.339 -0.287,-0.535 0,-0.126 0.017,-0.234 0.051,-0.323 0.034,-0.089 0.098,-0.172 0.192,-0.248 0.092,-0.076 0.221,-0.15 0.386,-0.222 0.165,-0.072 0.375,-0.155 0.629,-0.248 0.23,-0.093 0.417,-0.182 0.567,-0.267 0.147,-0.085 0.263,-0.176 0.348,-0.273 0.084,-0.097 0.145,-0.203 0.178,-0.318 0.034,-0.114 0.052,-0.239 0.052,-0.375 0,-0.178 -0.036,-0.356 -0.109,-0.533 -0.073,-0.178 -0.182,-0.337 -0.331,-0.477 -0.147,-0.139 -0.337,-0.252 -0.564,-0.336 -0.23,-0.085 -0.5,-0.127 -0.814,-0.127 -0.119,0 -0.282,0.004 -0.489,0.011 -0.208,0.009 -0.416,0.036 -0.623,0.082 -0.208,0.045 -0.388,0.116 -0.54,0.211 -0.152,0.095 -0.228,0.227 -0.228,0.394 0,0.119 0.038,0.212 0.115,0.28 0.075,0.067 0.173,0.119 0.292,0.152 0.177,-0.203 0.415,-0.349 0.711,-0.438 0.297,-0.089 0.576,-0.133 0.839,-0.133 0.321,0 0.574,0.07 0.755,0.21 0.182,0.14 0.274,0.325 0.274,0.554 0,0.187 -0.072,0.344 -0.217,0.471 -0.144,0.128 -0.415,0.264 -0.812,0.408 -0.254,0.085 -0.47,0.174 -0.649,0.268 -0.178,0.093 -0.319,0.195 -0.426,0.306 -0.105,0.11 -0.183,0.237 -0.235,0.382 -0.051,0.144 -0.075,0.314 -0.075,0.509 0,0.213 0.049,0.408 0.145,0.587 0.098,0.178 0.234,0.333 0.408,0.465 0.172,0.131 0.379,0.235 0.623,0.312 0.24,0.076 0.504,0.114 0.793,0.114 0.44,0 0.784,-0.052 1.03,-0.158 C -0.123,0.307 0,0.169 0,0"
             style="fill:#656263;fill-opacity:1;fill-rule:nonzero;stroke:none"
             id="path8872" />
        </g>
        <g
           id="g8874"
           transform="translate(626.1133,515.3745)">
          <path
             inkscape:connector-curvature="0"
             d="m 0,0 c 0,0.229 -0.07,0.408 -0.21,0.541 -0.14,0.13 -0.388,0.196 -0.743,0.196 -0.161,0 -0.33,-0.025 -0.509,-0.076 C -1.64,0.61 -1.81,0.525 -1.97,0.407 -2.131,0.288 -2.276,0.127 -2.408,-0.076 c -0.131,-0.203 -0.231,-0.458 -0.299,-0.762 0.144,-0.026 0.324,-0.045 0.541,-0.058 0.216,-0.012 0.412,-0.019 0.591,-0.019 0.584,0 0.993,0.079 1.225,0.235 C -0.116,-0.523 0,-0.296 0,0 m 0.686,0.089 c 0,-1.016 -0.738,-1.525 -2.21,-1.525 -0.196,0 -0.4,0.007 -0.611,0.019 -0.212,0.013 -0.428,0.036 -0.647,0.07 -0.009,-0.05 -0.014,-0.101 -0.014,-0.152 l 0,-0.127 c 0,-1.102 0.453,-1.652 1.359,-1.652 0.281,0 0.56,0.029 0.839,0.089 0.281,0.059 0.555,0.152 0.827,0.279 0.101,-0.075 0.152,-0.173 0.152,-0.292 0,-0.17 -0.149,-0.328 -0.444,-0.476 -0.297,-0.148 -0.785,-0.223 -1.461,-0.223 -1.347,0 -2.022,0.703 -2.022,2.11 0,0.457 0.06,0.876 0.179,1.257 0.117,0.382 0.292,0.708 0.52,0.979 0.23,0.271 0.513,0.48 0.852,0.629 0.339,0.148 0.732,0.222 1.182,0.222 0.288,0 0.527,-0.032 0.717,-0.095 C 0.095,1.137 0.247,1.053 0.361,0.947 0.477,0.841 0.56,0.714 0.609,0.565 0.66,0.417 0.686,0.259 0.686,0.089"
             style="fill:#656263;fill-opacity:1;fill-rule:nonzero;stroke:none"
             id="path8876" />
        </g>
        <g
           id="g8878"
           transform="translate(628.457,512.147)">
          <path
             inkscape:connector-curvature="0"
             d="m 0,0 c 0,-0.187 -0.06,-0.33 -0.178,-0.432 -0.119,-0.102 -0.284,-0.152 -0.495,-0.152 -0.152,0 -0.279,0.036 -0.382,0.108 -0.1,0.072 -0.152,0.192 -0.152,0.361 0,0.171 0.06,0.31 0.179,0.42 0.118,0.11 0.288,0.165 0.507,0.165 0.186,0 0.321,-0.042 0.401,-0.126 C -0.041,0.258 0,0.144 0,0"
             style="fill:#656263;fill-opacity:1;fill-rule:nonzero;stroke:none"
             id="path8880" />
        </g>
      </g>
    </g>
  </g>
</svg>
